<svg id="Icons" height="512" viewBox="0 0 60 60" width="512" xmlns="http://www.w3.org/2000/svg"><path d="m59 58h-3v-2a2 2 0 0 0 -2-2v-3h1.673a2 2 0 0 0 1.927-2.551l-6.875-24a2.009 2.009 0 0 0 -1.925-1.449h-37.6a2.009 2.009 0 0 0 -1.923 1.449l-6.877 24.001a2 2 0 0 0 1.927 2.55h1.673v3a2 2 0 0 0 -2 2v2h-3a1 1 0 0 0 0 2h58a1 1 0 0 0 0-2zm-7-4h-2v-3h2zm-6 2v2h-32v-2a2 2 0 0 0 -2-2v-3h36v3a2 2 0 0 0 -2 2zm-36.8-24h6.246l-1.546 8h-7zm8.283 0h6.9l-.616 8h-7.825zm35.617 8h-7l-1.539-8h6.248zm-9.039 0h-7.827l-.616-8h6.9zm-9.676 2 .538 7h-9.843l.538-7zm-8.61-2 .616-8h7.224l.616 8zm11.154 9-.538-7h8.055l1.346 7zm-1.465-19-.384-5h6.094l.961 5zm-2 0h-6.923l.385-5h6.148zm-8.923 0h-6.676l.961-5h6.094zm-.924 12-.538 7h-8.868l1.346-7zm29.383 7h-5.174l-1.346-7h7.19l2.006 7zm-4.2-24 1.433 5h-6.06l-.962-5zm-37.6 0h5.587l-.962 5h-6.055zm-6.874 24 2.006-7h7.188l-1.346 7zm3.674 2h2v3h-2zm-2 7v-2h6v2zm42 0v-2h6v2z"/><path d="m30 6a6 6 0 1 0 6 6 6.006 6.006 0 0 0 -6-6zm0 10a4 4 0 1 1 4-4 4 4 0 0 1 -4 4z"/><path d="m30 4a1 1 0 0 0 1-1v-2a1 1 0 0 0 -2 0v2a1 1 0 0 0 1 1z"/><path d="m24.634 4.706a1 1 0 1 0 1.732-1l-1-1.732a1 1 0 1 0 -1.732 1z"/><path d="m19.974 7.366 1.732 1a1 1 0 1 0 1-1.732l-1.732-1a1 1 0 1 0 -1 1.732z"/><path d="m37.294 17.366 1.732 1a1 1 0 1 0 1-1.732l-1.732-1a1 1 0 0 0 -1 1.732z"/><path d="m19 13h2a1 1 0 0 0 0-2h-2a1 1 0 0 0 0 2z"/><path d="m38 12a1 1 0 0 0 1 1h2a1 1 0 0 0 0-2h-2a1 1 0 0 0 -1 1z"/><path d="m21.706 15.634-1.732 1a1 1 0 1 0 1 1.732l1.732-1a1 1 0 1 0 -1-1.732z"/><path d="m37.8 8.5a.992.992 0 0 0 .5-.134l1.732-1a1 1 0 1 0 -1-1.732l-1.732 1a1 1 0 0 0 .5 1.866z"/><path d="m34 5.072a1 1 0 0 0 1.366-.366l1-1.732a1 1 0 1 0 -1.732-1l-1 1.732a1 1 0 0 0 .366 1.366z"/></svg>