<svg id="Capa_1" enable-background="new 0 0 512 512" height="512" viewBox="0 0 512 512" width="512" xmlns="http://www.w3.org/2000/svg"><g><path d="m33.458 281.143v210.253c0 11.379 9.225 20.604 20.604 20.604h260.611c11.379 0 20.604-9.225 20.604-20.604v-210.253l-150.909-10.302z" fill="#407194"/><path d="m304.371 278.053v213.344c0 11.379-9.225 20.604-20.604 20.604h30.905c11.379 0 20.604-9.225 20.604-20.604v-210.254z" fill="#365f7e"/><path d="m210.904 0h-53.073c-4.382 0-8.285 2.772-9.728 6.91l-15.122 43.376 50.108 13.392 52.665-13.392-15.123-43.376c-1.443-4.138-5.345-6.91-9.727-6.91z" fill="#ddebfd"/><path d="m220.631 6.91c-1.443-4.138-5.345-6.91-9.727-6.91h-27.815c4.382 0 8.285 2.772 9.728 6.91l15.122 43.376h27.815z" fill="#bed9fd"/><path d="m33.458 281.143h301.818v-210.253c0-11.379-9.225-20.604-20.604-20.604h-260.61c-11.379 0-20.604 9.225-20.604 20.604z" fill="#ffc269"/><path d="m314.672 50.287h-30.905c11.379 0 20.604 9.224 20.604 20.604v210.253h30.905v-210.254c0-11.379-9.225-20.603-20.604-20.603z" fill="#ffa95f"/><circle cx="184.367" cy="281.143" fill="#ddebfd" r="84.502"/><path d="m476.172 319.294c3.044-1.646 3.183-6.41.258-8.691-65.456-51.034-251.88 11.195-197.871 106.617 13.703 24.21 60.244 36.121 97.641 13.856 43.116-25.67 37.773-78.154 99.972-111.782z" fill="#9cd169"/><path d="m476.43 310.603c-7.221-5.63-15.916-9.88-25.596-12.86.871.649 1.729 1.313 2.561 2.001 2.917 2.411 2.757 7.474-.295 9.236-62.362 36.003-57.242 91.754-100.481 119.218-12.271 7.795-25.503 11.684-38.234 12.518 18.887 4.418 41.674 2.351 61.815-9.64 43.116-25.671 37.773-78.155 99.972-111.783 3.044-1.645 3.183-6.409.258-8.69z" fill="#68b181"/><path d="m218.499 273.84h-17.242c-1.532 0-2.774-1.242-2.774-2.774v-39.828c0-4.091-5.087-5.976-7.753-2.874l-44.378 51.626c-2.854 3.32-.495 8.458 3.883 8.458h17.242c1.532 0 2.774 1.242 2.774 2.774v39.828c0 4.091 5.087 5.976 7.753 2.874l44.378-51.626c2.854-3.32.495-8.458-3.883-8.458z" fill="#9cd169"/><path d="m203.717 113.429h-11.624v-11.624c0-4.267-3.459-7.726-7.726-7.726s-7.726 3.459-7.726 7.726v11.624h-11.624c-4.267 0-7.726 3.459-7.726 7.726s3.459 7.726 7.726 7.726h11.624v11.624c0 4.267 3.459 7.726 7.726 7.726s7.726-3.459 7.726-7.726v-11.624h11.624c4.267 0 7.726-3.459 7.726-7.726s-3.459-7.726-7.726-7.726z" fill="#407194"/><path d="m203.717 448.858h-38.701c-4.267 0-7.726-3.459-7.726-7.726s3.459-7.726 7.726-7.726h38.701c4.267 0 7.726 3.459 7.726 7.726s-3.459 7.726-7.726 7.726z" fill="#ffc269"/><path d="m476.172 319.294c3.044-1.646 3.183-6.41.258-8.691-1.4-1.092-2.861-2.126-4.368-3.115-25.299 1.506-60.371 8.465-94.212 24.717-33.469 16.074-75.946 46.542-88.238 100.414-2.109 9.243-3.286 18.962-3.5 28.888-.092 4.266 3.292 7.799 7.558 7.89.057.001.113.002.17.002 4.19 0 7.631-3.351 7.721-7.56.191-8.883 1.239-17.557 3.116-25.783 10.922-47.866 49.458-75.32 79.863-89.922 28.854-13.857 60.595-21.037 84.917-22.974 2.15-1.312 4.38-2.604 6.715-3.866z" fill="#68b181"/><path d="m476.172 319.294c3.044-1.646 3.183-6.41.258-8.691-1.4-1.092-2.861-2.126-4.368-3.115-6.151.366-12.888 1.062-20.036 2.128-11.417 6.717-20.543 14.102-28.105 21.852 16.287-4.54 32.052-7.234 45.535-8.307 2.151-1.313 4.381-2.605 6.716-3.867z" fill="#5ea570"/></g></svg>