<?xml version="1.0" encoding="iso-8859-1"?>
<!-- Generator: Adobe Illustrator 19.0.0, SVG Export Plug-In . SVG Version: 6.00 Build 0)  -->
<svg xmlns="http://www.w3.org/2000/svg" xmlns:xlink="http://www.w3.org/1999/xlink" version="1.1" id="Layer_1" x="0px" y="0px" viewBox="0 0 512 512" style="enable-background:new 0 0 512 512;" xml:space="preserve">
<path style="fill:#FFA227;" d="M512,325.8H356.811V138.801c0-3.304,2.68-5.983,5.986-5.983h93.496c2.034,0,3.929,1.032,5.031,2.741  l50.317,77.995c0.234,0.363,0.358,0.785,0.358,1.216V325.8H512z"/>
<path style="fill:#F78B0B;" d="M511.642,213.555l-50.317-77.995c-1.102-1.709-2.997-2.741-5.031-2.741h-29.205  c2.034,0,3.929,1.032,5.031,2.741l50.317,77.995c0.234,0.363,0.358,0.785,0.358,1.216V325.8H512V214.771  C512,214.339,511.875,213.917,511.642,213.555z"/>
<path style="fill:#FFA227;" d="M192.77,113.919h-60.553c-11.036,0-19.983,10.051-19.983,21.081l0,0h100.519v-1.11  C212.753,122.86,203.806,113.919,192.77,113.919z"/>
<g>
	<path style="fill:#B3B3B3;" d="M23.12,270.5v53h29.544V288C41.508,285.266,31.417,277.907,23.12,270.5z"/>
	<path style="fill:#B3B3B3;" d="M290.399,286.667V323.5h29.205v-55C311.614,276.687,301.618,283.226,290.399,286.667z"/>
	<path style="fill:#B3B3B3;" d="M14.133,345.928H499.4c6.958,0,12.599-5.641,12.599-12.599v-16.534H14.133   c-4.694,0-8.499,3.805-8.499,8.499v12.135C5.634,342.123,9.439,345.928,14.133,345.928z"/>
</g>
<path style="fill:#AEFFFF;" d="M485.524,222.562L485.524,222.562c0-0.431-0.124-0.854-0.358-1.216l-38.739-60.049  c-0.811-1.258-2.206-2.017-3.703-2.017h-55.029c-2.433,0-4.406,1.972-4.406,4.404v56.72c0,2.432,1.973,4.404,4.406,4.404h95.584  C484.518,224.806,485.524,223.801,485.524,222.562z"/>
<path style="fill:#84F1F7;" d="M485.165,221.345l-38.739-60.05c-0.811-1.258-2.206-2.017-3.703-2.017H411.99  c1.497,0,2.892,0.76,3.703,2.017l40.924,63.51h26.66c1.24,0,2.246-1.005,2.246-2.244  C485.524,222.13,485.399,221.708,485.165,221.345z"/>
<path style="fill:#FFCC5A;" d="M270.083,133.89H69.176C30.971,133.89,0,164.861,0,203.066v20.548  c0,38.205,30.971,69.176,69.176,69.176h200.906c38.205,0,69.176-30.971,69.176-69.176v-20.548  C339.259,164.861,308.288,133.89,270.083,133.89z"/>
<path style="fill:#FFB000;" d="M310.054,146.627v79.223c0,20.57-16.685,37.245-37.267,37.245H12.382  c12.501,17.943,33.279,29.697,56.815,29.697h200.865c38.217,0,69.197-30.962,69.197-69.156v-20.59  C339.259,179.748,327.72,159.157,310.054,146.627z"/>
<path style="fill:#999999;" d="M512,316.794h-29.205v29.134h16.602c6.96,0,12.602-5.638,12.603-12.593V316.794z"/>
<ellipse style="fill:#808080;" cx="417.91" cy="349.79" rx="48.32" ry="48.29"/>
<path style="fill:#666666;" d="M417.914,301.495c-5.099,0-10.011,0.795-14.626,2.258c19.536,6.194,33.696,24.46,33.696,46.035  s-14.16,39.841-33.696,46.035c4.615,1.463,9.527,2.258,14.626,2.258c26.688,0,48.322-21.621,48.322-48.293  C466.236,323.117,444.602,301.495,417.914,301.495z"/>
<ellipse style="fill:#808080;" cx="104.43" cy="349.79" rx="48.32" ry="48.29"/>
<path style="fill:#666666;" d="M104.431,301.495c-5.099,0-10.011,0.795-14.626,2.258c19.536,6.194,33.696,24.46,33.696,46.035  s-14.16,39.841-33.696,46.035c4.615,1.463,9.527,2.258,14.626,2.258c26.687,0,48.322-21.621,48.322-48.293  C152.753,323.117,131.118,301.495,104.431,301.495z"/>
<g>
	<ellipse style="fill:#B3B3B3;" cx="417.91" cy="349.79" rx="20.14" ry="20.12"/>
	<ellipse style="fill:#B3B3B3;" cx="104.43" cy="349.79" rx="20.14" ry="20.12"/>
</g>
<g>
</g>
<g>
</g>
<g>
</g>
<g>
</g>
<g>
</g>
<g>
</g>
<g>
</g>
<g>
</g>
<g>
</g>
<g>
</g>
<g>
</g>
<g>
</g>
<g>
</g>
<g>
</g>
<g>
</g>
</svg>
